<?xml version="1.0" encoding="utf-8" ?><svg xmlns="http://www.w3.org/2000/svg" xmlns:xlink="http://www.w3.org/1999/xlink" width="1024" height="1024" viewBox="0 0 1024 1024"><path fill="#151415" d="M569.296 894.703C577.61 894.826 592.087 900.964 600.039 904.281C620.5 912.816 646.803 931.176 655.314 952.501C646.619 946.932 636.055 938.336 627.482 931.968C607.845 917.38 590.853 907.718 568.01 899.082C527.536 911.911 509.172 922.472 476.101 950.21C463.732 961.614 451.915 973.602 440.692 986.135C436.232 991.188 432.586 995.563 427.705 1001.44C423.48 1006.52 417.449 1016.52 411.929 1020.54C410.956 1021.24 409.457 1020.95 408.449 1020.59C405.268 1015.12 418.288 998.822 421.741 994.404C458.047 947.953 508.218 901.875 569.296 894.703Z"/><path fill="#151415" d="M343.976 48.2986C345.862 37.4908 350.407 28.9901 362.177 27.0439C380.833 23.959 395.687 33.5316 410.248 43.4098C413.79 42.5145 417.415 41.9908 421.066 41.8472C434.944 41.3583 443.352 48.1344 452.916 57.1084C453.068 46.028 456.77 38.0008 469.179 37.8297C481.888 37.6544 492.336 44.5367 501.246 52.9894C516.651 48.9482 525.873 54.1321 534.164 67.1129C539.04 74.7461 540.721 80.9856 541.732 89.8917C541.935 93.9124 542.263 97.5154 541.649 101.513L542.089 101.946C543.593 100.626 545.346 98.4473 546.523 97.5998C553.513 93.6739 559.764 94.8371 563.753 102.303C569.628 113.298 562.698 124.742 556.494 133.842C571.794 135.56 587.188 136.674 602.489 138.364C646.516 143.227 690.051 152.051 729.492 173.026C750.31 184.097 764.902 188.761 764.218 215.644C801.143 234.422 831.49 263.977 851.236 300.393C861.194 318.685 867.837 335.731 868.642 356.924C869.267 373.371 853.162 444.258 891.284 423.626C887.463 428.895 886.422 430.044 880.437 433.227C894.952 447.996 914 456.308 927.139 472.055C935.254 481.779 931.66 499.871 922.851 508.158C919.31 511.489 915.299 513.19 910.745 514.652C921.671 529.002 937.927 528.376 935.687 548.47C934.686 557.445 930.426 563.025 924.127 569.12C930.282 573.297 935.17 578.77 936.468 586.297C939.442 603.553 930.358 609.188 917.072 615.162C913.312 625.706 917.252 630.428 918.246 640.539C922.425 686.041 870.564 686.343 838.573 684.737C814.989 683.553 785.908 676.77 763.267 679.812C742.593 682.59 728.364 720.167 721.345 736.889C712.711 757.671 704.479 778.618 696.655 799.719C692.8 809.907 688.554 822 684.36 831.963C689.67 840.459 696.501 849.51 702.142 858.199C715.33 878.539 727.621 899.448 738.979 920.864C752.582 946.684 764.047 972.091 774.458 999.302C777.246 1006.59 784.177 1016.61 787.952 1024L779.585 1024C772.223 1012.9 762.729 1000.48 754.654 989.742C740.833 971.383 726.789 953.193 712.523 935.178C661.955 871.537 607.004 812.812 543.03 762.447C512.885 738.715 487.668 717.599 447.793 713.036C440.144 723.624 440.813 736.163 434.521 745.616C429.074 753.801 421.888 760.112 416.94 769.812C410.382 782.669 397.114 792.601 387.679 803.642C366.885 828.265 348.481 854.809 332.713 882.917C311.162 920.973 293.243 960.696 274.011 999.92C270.963 1006.14 266.837 1019.51 259.304 1020.47C250.062 1017.3 260.854 993.121 263.371 986.626C290.035 917.813 325.111 848.294 377.851 795.703C386.035 787.542 397.735 776.367 408.025 771.552C412.495 758.961 416.804 752.612 426.385 743.791C429.618 731.957 428.584 714.801 440.136 707.613C441.768 706.597 444.895 705.99 446.832 705.565C457.843 693.869 454.316 675.296 465.465 668.575C478.252 667.52 492.279 674.326 504.237 679.005C508.833 669.865 512.162 662.023 514.963 652.133C485.495 662.8 472.677 640.587 463.657 616.352C452.786 614.365 432.194 605.531 425.27 597.134C415.333 585.081 412.296 583.952 398.968 576.292C391.45 571.971 378.865 558.444 372.665 551.647C377.728 572.472 393.228 623.918 373.574 639.002C378.502 644.718 387.004 657.183 387.488 664.792C388.905 687.085 372.734 689.579 358.53 676.902C350.942 669.282 346.1 659.582 342.339 649.633C340.553 643.46 338.833 637.268 337.181 631.058C322.833 621.552 317.605 610.861 308.934 596.457C315.659 616.661 324.859 632.937 337.818 649.835C344.265 659.237 351.145 668.848 356.985 678.596C368.471 696.079 378.483 710.84 383.964 731.51C387.867 746.23 386.57 752.315 369.449 749.659C359.355 748.093 350.895 744.503 342.334 738.894C316.957 722.284 302.42 696.336 294.13 667.86C292.21 661.252 289.886 654.712 288.479 647.878C286.528 658.538 283.209 670.087 269.476 666.478C250.276 661.432 230.13 641.275 219.781 624.907C211.515 623.187 207.827 621.712 200.416 617.271C204.144 625.391 205.9 627.858 210.731 635.476C217.442 646.058 229.756 656.395 232.321 668.41C232.733 670.406 232.411 675.239 230.629 676.677C216.276 688.261 188.839 665.11 180.711 657.574C155.753 634.438 143.758 605.068 142.556 571.918C135.892 564.912 129.767 558.226 124.432 550.071C97.2944 508.586 99.1021 456.889 108.276 410.467C99.5581 397.943 101.858 376.199 102.191 360.874C87.2339 351.64 86.2723 335.34 87.8795 319.324C92.1497 277.152 103.897 234.404 126.773 198.394C133.682 187.519 142.361 178.579 150.362 168.799C151.944 166.865 153.184 154.592 153.903 151.208C161.513 115.414 192.686 91.2062 225.807 79.7681C232.938 77.3053 240.073 75.7673 247.197 73.4023C248.215 73.0643 251.298 69.6291 252.384 68.9673C261.72 61.776 271.433 60.6151 282.663 61.6142C286.595 56.3452 291.687 52.0517 297.544 49.0659C312.351 41.5388 328.726 43.3735 343.976 48.2986ZM745.476 214.905C741.572 214.214 727.556 210.631 724.867 212.856L724.962 213.802C726.35 215.409 729.32 218.031 731.419 218.359L732.912 220.346C730.75 220.165 728.358 219.183 726.28 218.9C723.831 218.566 720.241 218.736 717.691 218.805C719.422 220.021 722.732 222.472 724.433 223.417C729.605 226.818 733.588 228.345 738.656 232.269C734.947 231.748 719.214 228.511 717.153 229.44L717.183 230.04L717.444 230.257C721.154 231.73 722.303 232.224 725.671 234.415L715.384 233.245C716.4 234.364 717.907 236.135 719.024 237.014C715.941 237.208 712.829 236.815 710.77 238.391L710.554 239.227L712.63 240.228L712.675 240.812C708.746 242.166 703.858 241.546 699.619 241.357C698.987 241.202 695.848 240.858 695.043 240.754C693.368 240.429 693.966 240.218 692.742 240.751C693.211 240.985 693.916 241.363 694.382 241.555L699.866 242.737C701.746 243.285 701.636 242.949 702.807 244.165C700.594 246.917 681.651 245.707 676.33 247.168C659.714 251.731 645.164 258.942 627.977 261.538L617.75 278.56C635.04 283.86 665.601 263.274 682.582 257.601L682.973 258.288C687.701 258.156 686.892 252.539 686.778 249.751C688.191 249.632 698.273 251.348 699.367 251.768C697.211 252.395 689.242 255.151 687.882 256.657L688.922 256.769C691.052 256.901 692.602 256.549 694.371 257.777L694.36 258.551C692.328 260.201 686.406 261.897 683.697 262.724C688.524 262.609 693.737 262.44 698.537 262.061C691.099 264.78 682.629 266.724 676.663 271.52C678.518 271.634 680.9 271.71 682.698 271.963C683.771 272.423 684.611 272.72 685.601 273.342L683.642 274.05L682.972 274.27C678.57 275.669 675.14 275.774 670.681 276.993C671.608 277.772 674.449 277.126 675.7 276.916C677.479 276.674 678.166 276.204 679.228 276.974C678.935 277.579 678.818 277.894 678.436 278.449C674.646 278.82 672.932 280.415 669.854 282.6C673.656 281.684 677.506 280.789 681.292 279.829C684.518 279.455 698.215 277.533 700.252 278.642L699.932 278.543C698.629 279.552 699.178 279.203 697.351 279.486C694.704 279.61 690.835 280.579 688.6 282.044L688.076 283.038C690.367 285.277 694.805 284.307 697.868 284.068C701.62 283.713 705.364 283.279 709.098 282.766L708.733 284.691C705.484 286.568 702.271 285.956 698.442 287.086C696.976 288.013 696.693 287.803 696.39 289.032C697.836 289.621 697.77 289.553 699.353 289.536C702.983 288.991 709.182 287.432 712.048 289.348C708.754 290.721 703.995 291.894 700.447 292.876L697.781 294.1L697.84 294.503L698.704 294.456C698.886 294.461 699.068 294.465 699.25 294.47L700.159 294.471C704.526 294.499 711.076 293.341 715.563 292.699L716.978 293.332C715.334 295.23 704.818 296.369 700.646 297.879C698.933 298.572 699.289 298.036 698.633 299.208C704.134 299.286 710.659 297.328 717.333 297.353C705.908 303.021 697.901 300.787 688.11 306.658C689.848 306.484 692.843 306.084 694.483 306.036C700.469 305.263 703.611 304.643 709.489 305.649L709.144 306.966L695.873 309.842L695.488 310.181C695.279 310.236 695.071 310.291 694.862 310.346C696.286 311.322 710.804 308.565 714.312 308.443C701.699 314.437 691.278 313.202 678.862 315.944C665.094 318.985 642.722 330.832 630.075 338.597C631.04 340.591 632.4 343.632 633.518 345.443C655.47 334.906 679.366 321.747 704.124 318.825L704.874 319.124C704.783 320.413 704.885 319.811 704.6 320.937C701.699 321.822 698.366 322.823 695.917 324.663C694.696 324.927 694.964 324.818 693.822 325.338L694.158 325.765L693.981 326.041C696.956 326.709 700.676 326.441 703.62 325.764L705.722 326.501C709.175 325.464 712.081 324.262 715.641 324.607L715.883 325.178C712.998 327.703 709.674 328.571 706.05 329.876C704.327 330.807 702.682 331.629 700.925 332.494C706.543 331.443 712.535 330.62 718.008 329.254L717.355 329.712C714.239 331.917 715.014 331.462 712.716 334.198C710.653 336.654 705.51 338.463 702.381 339.812C701.077 340.405 699.955 340.782 699.458 342.278C701.071 342.748 701.879 342.621 702.514 343.685C700.821 344.427 700.407 344.461 698.648 344.779L696.089 345.722C695.263 347.828 694.074 350.339 692.085 351.659C674.296 363.464 652.663 369.429 636.789 383.946C641.398 385.457 648.626 387.376 652.156 390.344C653.603 393.602 651.217 394.084 652.331 397.205C653.479 397.56 653.628 397.589 654.824 397.713C655.023 401.057 652.9 400.023 653.175 402.77C655.018 404.063 655.013 403.592 655.323 405.201C652.639 411.05 646.773 411.523 646.026 415.506C646.993 416.042 647.079 416.01 647.805 416.836C645.947 421.103 633.855 421.343 631.655 426.538C630.494 429.279 624.781 429.908 622.277 430.158C622.764 431.195 622.786 430.978 622.673 432.141C619.231 433.388 611.65 433.251 610.927 433.901L611.56 434.438C612.984 434.666 613.779 434.665 614.982 435.473C613.383 436.297 611.443 436.108 609.589 436.122C606.987 436.738 603.25 436.512 600.481 436.448C601.674 437.931 603.566 440.455 604.872 441.681C605.596 443.164 606.318 444.107 605.993 445.662C604.125 446.458 602.614 444.849 601.11 443.707C579.323 429.845 542.726 409.749 524.655 439.954C515.464 455.316 512.924 463.738 516.585 480.818C522.846 510.022 542.978 523.529 568.673 534.97C572.688 536.758 577.462 538.88 581.366 541.014C592.414 548.638 596.948 556.635 612.342 552.679C609.815 551.373 605.325 549.393 604.833 546.465C603.511 538.587 614.499 540.478 618.138 540.901C619.555 538.675 620.654 536.47 622.777 535.005L623.866 534.945C624.915 537.435 623.636 539.741 622.694 542.378C636.185 552.832 638.268 563.874 644.193 578.982C647.866 588.349 652.721 597.324 659.3 604.98C668.029 615.138 679.509 622.158 691.247 628.337C732.08 649.827 833.491 681.185 878.441 675.277C888.537 673.95 900.474 670.059 907.011 661.73C912.26 655.045 912.982 646.892 911.841 638.782C911.12 633.666 909.803 628.358 907.476 623.722C900.633 619.823 896.297 620.437 890.06 617.705C892.173 617.6 895.422 617.694 897.15 616.746C897.457 613.831 898.067 614.111 900.795 612.976C900.752 611.565 900.46 611.774 899.111 610.42C901.539 607.886 905.692 610.826 908.52 609.512L908.932 608.885C901.082 604.394 896.335 601.156 890.016 594.759C898.046 596.156 905.705 597.651 913.384 600.076C916.183 600.96 924.472 603.208 926.176 601.347C936.031 590.586 926.361 577.559 919.212 571.903C902.717 575.901 887.961 580.116 872.151 586.008C865.965 588.314 861.09 569.265 878.29 572.742C889.592 566.156 899.128 558.376 907.935 548.703C913.569 542.516 918.829 538.327 925.652 533.665C921.13 530.672 899.602 514.604 904.753 508.1C907.017 509.529 908.06 511.503 909.544 511.871L909.552 510.55C910.247 509.315 915.987 507.027 918.415 505.482C921.376 502.861 923.641 499.546 925.008 495.834C926.858 490.844 927.411 483.052 924.736 478.571C911.96 457.168 879.211 445.089 865.664 424.016C853.34 404.844 862.75 374.975 861.553 353.529C860.785 339.771 857.268 328.331 851.736 315.823C834.217 276.21 801.801 245.23 765.204 223.032C756.355 217.664 746.488 211.661 736.752 207.977L745.476 214.905ZM895.052 515.989C893.32 516.827 891.903 517.557 889.977 517.804C885.196 518.432 880.361 517.122 876.551 514.164C872.198 510.858 869.348 505.948 868.638 500.528C867.964 494.843 869.642 489.13 873.284 484.713C876.55 480.798 882.306 477.908 887.35 477.489C889.234 477.579 891.589 477.603 893.403 477.907C886.197 479.332 879.361 480.414 874.917 487.217C872.731 490.595 871.994 494.709 872.87 498.636C874.541 506.379 880.337 510.837 887.612 512.898C885.226 507.009 875.773 500.184 878.619 494.128C880.293 495.136 881.584 499.655 882.714 501.539C884.762 504.955 888.297 508.499 891.087 511.38C895.16 503.404 890.866 503.464 900.224 496.903C906.355 492.604 922.57 488.75 916.865 501.662C912.702 505.273 909.068 506.379 903.804 507.935C900.283 508.914 896.585 509.258 894.871 512.273C894.685 513.912 894.818 514.399 895.052 515.989ZM516.702 683.609C531.472 691.266 539.719 697.009 553.504 706.569C600.256 738.916 641.808 778.195 676.731 823.056C680.456 813.941 684.103 804.794 687.67 795.616L709.266 742.326C712.984 733.139 717.415 722.818 720.789 713.569C711.814 705.761 703.527 695.472 695.709 686.415C672.674 659.732 652.498 634.39 636.501 602.885C632.099 614.184 626.797 623.404 615.117 628.608C608.165 631.711 600.256 631.881 593.177 629.08C583.169 625.177 576.234 616.617 572.144 606.948C563.444 586.382 566.597 565.06 577.618 546.179C572.793 544.479 565.605 542.137 561.287 539.712C554.712 557.77 540.872 570.82 535.163 588.949C533.341 594.732 535.432 604.676 534.866 611.408C532.761 636.444 527.759 661.042 516.702 683.609ZM357.244 738.488C364.738 742.066 371.5 743.87 379.767 744.956C366.898 695.384 318.492 657.538 303.634 610.971C265.215 490.562 255.701 344.208 321.028 231.086C323.083 227.528 337.984 205.229 337.712 203.689L337.446 203.455C326.949 209.315 311.533 218.239 302.749 226.462C298.709 230.245 292.165 243.247 289.449 248.649C276.214 274.974 265.113 301.572 256.971 329.897C240.405 387.526 243.059 431.89 253.312 490.04C257.972 517.3 264.268 544.254 272.165 570.758C276.163 584.109 281.488 596.871 285.676 610.209C299.461 654.105 307.711 705.928 348.751 733.782C350.908 735.246 354.817 737.666 357.244 738.488ZM202.679 610.632C206.426 613.195 210.408 615.632 214.622 617.358C212.46 612.021 203.744 592.412 200.409 589.351C179.49 570.582 156.992 547.563 144.936 521.818C125.594 480.517 130.967 427.455 148.745 386.373C181.357 311.013 246.877 247.562 317.155 206.521C322.557 203.358 328.043 200.339 333.607 197.469C337.365 195.507 341.502 193.458 345.045 191.235C347.202 189.881 353.066 183.161 353.518 181.208C274.827 199.202 205.232 238.767 161.861 309.168C127.977 364.17 104.278 436.308 117.745 501.399C127.758 546.2 167.524 584.161 202.679 610.632ZM452.309 710.886C462.178 711.492 471.435 713.707 480.635 717.331C538.922 740.289 625.537 821.903 667.349 869.185C693.434 898.683 719.606 928.588 743.406 959.971C746.261 963.917 748.672 966.873 751.787 970.58C741.823 948.663 729.048 925.566 716.68 904.721C703.011 881.681 686.742 855.062 669.86 834.056C634.999 790.679 588.795 749.307 543.437 717.224C527.298 705.809 494.714 685.661 476.437 678.742C474.113 677.867 471.769 677.047 469.407 676.282C463.781 689.88 461.781 699.22 452.309 710.886ZM263.198 650.965C266.585 653.238 276.166 659.653 278.855 654.353C284.688 642.858 266.311 624.593 260.368 617.49C244.022 597.953 233.825 575.512 225.9 551.626C211.253 495.867 203.875 435.367 204.566 377.719C204.791 358.907 208.051 339.597 211.738 321.276C212.425 317.862 218.04 299.581 217.789 298.421C210.15 306.46 187.913 333.075 183.77 343.059C179.744 352.762 180.453 383.04 180.743 394.412C181.474 424.812 184.238 455.129 189.017 485.16C196.824 536.791 211.387 603.334 250.969 640.76C254.802 644.443 258.888 647.853 263.198 650.965ZM154.451 218.18C155.649 217.289 156.83 216.119 158.217 216.055C157.647 217.517 157.562 217.467 156.474 218.643C154.434 222.137 150.017 227.958 147.594 231.799C141.338 241.718 138.408 248.496 134.759 259.411C144.101 248.606 152.247 231.745 160.917 219.18C190.683 176.041 224.565 142.394 277.822 132.047C311.95 125.417 346.659 134.608 375.019 154.043C377.734 151.654 378.705 150.436 380.989 147.654C359.684 127.966 328.824 106.617 298.275 108.675C261.619 111.624 226.047 130.539 195.102 148.926C141.424 180.821 114.449 234.517 101.45 293.782C97.1561 313.361 90.7829 338.432 102.374 356.569C104.531 329.049 114.44 302.621 122.823 276.48C126.231 265.851 128.786 254.285 133.823 244.335C138.015 236.055 146.454 223.169 154.451 218.18ZM110.442 402.77C113.053 389.927 117.846 374.631 122.524 362.383C128.214 347.852 134.95 333.751 142.677 320.192C146.832 313.007 151.81 306.066 155.728 298.801C157.925 294.725 157.908 288.855 159.111 284.451C160.368 279.848 162.297 274.418 164.076 269.988C179.069 232.849 208.182 203.173 245.028 187.471C280.255 172.503 320.486 168.621 358.135 174.781C362.977 168.332 369.068 161.053 374.28 154.807C359.919 152.977 338.659 149.282 324.301 150.214C275.688 152.879 224.426 162.859 190.332 200.977C152.791 243.489 126.465 294.706 113.745 349.975C110.299 365.664 106.895 387.27 110.442 402.77ZM411.498 317.845C429.907 330.031 456.303 334.234 478.215 334.503C481.21 334.54 482.081 335.101 484.89 335.874C466.056 344.181 442.696 343.55 423.652 336.243C420.709 335.118 417.804 333.897 414.94 332.582C419.924 349.771 428.279 367.288 440.071 380.798C444.952 386.061 452.996 394.47 458.602 398.949L472.035 398.866C479.264 383.907 493.674 359.009 502.645 344.372C482.274 336.252 469.009 312.241 458.972 294.202C441.627 289.094 424.517 282.337 411.238 269.677C407.875 266.471 404.401 261.043 401.899 258.744C403.131 275.078 405.946 302.208 411.498 317.845ZM285.604 385.295C282.35 421.387 283.308 457.734 288.459 493.604C290.659 507.949 296.374 514.99 300.33 527.879C306.836 549.073 318.844 620.325 345.4 623.796C352.613 623.105 355.14 620.471 358.053 614.023C357.993 613.797 357.933 613.57 357.872 613.344C352.764 598.772 342.742 585.977 336.026 571.644C323.901 545.768 315.151 517.493 308.005 489.922C301.954 466.574 297.722 441.419 296.322 417.386C295.806 408.518 296.129 399.364 296.055 390.526C296.024 386.885 296.442 375.636 295.701 372.859C291.973 378.153 290.052 380.682 285.604 385.295ZM467.887 286.229C477.16 288.83 483.81 290.504 493.273 292.116C506.59 294.384 521.747 295.517 534.833 298.214C535.973 296.592 537.17 294.806 538.374 293.251C539.654 291.763 541.145 289.929 542.507 288.561C526.52 273.045 510.873 245.618 497.404 227.807C481.819 224.429 469.957 220.867 456.289 212.332C451.551 209.373 445.641 204.798 441.368 202.23C444.681 224.534 451.444 245.589 459.585 266.552C461.514 271.52 465.28 281.63 467.887 286.229ZM228.621 513.906C229.464 518.161 230.108 520.661 231.414 524.804C230.332 505.957 230.762 487.054 232.698 468.276C233.532 460.185 235.371 451.928 235.824 443.879C236.069 439.53 235.924 432.658 235.535 428.315C234.282 414.305 236.087 400.068 236.129 386.25C236.211 359.737 238.461 334.291 247.733 309.214C254.284 290.439 262.19 276.067 271.574 258.599C272.906 256.119 280.17 243.846 280.69 242.108L280.182 241.96C269.451 249.584 242.941 269.388 235.856 279.831C230.242 288.108 222.178 322.658 220.299 333.485C211.787 382.52 216.327 434.638 223.537 483.58C224.675 491.299 226.861 506.655 228.621 513.906ZM438.876 396.528C440.191 396.622 442.625 397.082 443.377 396.432C441.511 393.948 438.003 390.913 435.659 388.646C417.249 370.832 409.293 348.134 400.959 324.425C385.551 313.922 376.099 301.28 367.685 284.643C366.324 281.952 363.756 274.458 362.075 272.781C356.409 285.276 356.456 315.862 358.467 329.14C359.99 338.761 362.494 348.2 365.938 357.311C370.562 369.476 374.874 378.729 387.237 383.998C400.794 389.775 424.08 395.421 438.876 396.528ZM379.768 222.851L383.647 219.496C396.48 207.705 410.163 196.873 424.585 187.089C430.151 183.287 441.329 176.796 445.974 173.069C437.282 164.003 430.032 157.417 429.816 143.591C429.762 140.088 432.932 128.096 432.169 126.186L431.92 125.956C415.985 134.189 377.565 163.212 371.783 181.256C368.691 190.906 372.267 209.549 377.073 218.447C377.899 219.958 378.798 221.428 379.768 222.851ZM347.327 110.333C358.301 116.004 367.568 122.552 376.28 131.391C379.323 134.478 381.853 137.957 384.882 140.856L385.255 141.207C376.431 126.524 365.808 117.541 351.985 108.07C318.373 87.0574 277.756 80.352 239.174 89.4467C199.267 98.782 169.07 121.99 157.77 162.243C210.748 121.123 278.962 79.1962 347.327 110.333ZM177.403 550.413C180.499 554.481 184.565 560.156 187.779 563.896C183.683 551.34 179.89 520.858 178.139 506.963C174.53 478.322 169.928 445.123 169.111 416.335C168.781 404.491 169.012 392.639 169.805 380.818C169.964 378.41 170.912 367.244 170.478 365.902C160.773 384.478 147.079 416.815 146.817 438.774C146.796 440.594 151.058 456.051 151.723 458.589C154.174 467.93 156.197 477.379 157.783 486.906C158.519 491.325 159.678 499.992 159.453 504.349C158.407 524.587 165.467 534.217 177.403 550.413ZM590.841 229.886L583.655 227.295C585.041 229.58 585.914 230.962 587.552 233.12L599.378 220.799C605.929 213.112 613.269 205.856 620.39 198.675C616.626 189.202 611.449 178.446 606.985 169.17C593.716 166.827 578.196 164.075 565.623 159.165C559.158 156.639 551.254 152.556 544.781 149.65C550.344 169.478 562.978 194.073 574.935 210.849C579.142 216.752 586.143 224.04 590.841 229.886ZM392.815 436.772C413.631 440.174 433.471 440.015 454.447 437.772L459.017 427.571C462.295 420.72 466.485 412.659 469.283 405.785C461.179 408.753 456.646 407.29 448.29 407.425C422.371 407.845 399.782 402.831 376.227 391.91L372.527 390.178C377.303 404.062 384.553 424.644 392.815 436.772ZM542.052 412.669L543.269 415.578C545.726 416.628 549.667 415.609 552.256 415.186C579.131 410.796 603.595 397.725 624.697 380.888C630.504 376.603 636.369 371.23 642.646 367.712C659.113 358.486 675.386 350.004 691.579 340.226C693.174 339.624 694.485 339.268 695.815 338.207C694.534 337.65 691.305 338.47 689.815 338.761L689.251 338.085C690.266 335.944 694.32 332.429 696.225 330.672C692.854 331.558 686.321 334.54 683.588 333.797C683.69 331.614 687.566 329.753 689.394 328.697C682.553 331.018 671.486 336.564 664.952 339.85C653.131 345.695 641.52 351.956 630.142 358.622C599.357 376.926 585.212 388.794 548.683 394.614C546.205 398.754 541.536 405.677 540.89 410.201C541.294 411.558 541.239 411.527 542.052 412.669ZM671.12 231.164C678.795 229.192 685.583 227.563 693.377 226.159C700.509 224.874 709.395 224.015 716.211 222.109C714.371 219.974 712.481 217.662 710.468 215.711C712.164 215.189 713.646 215.002 714.684 213.665C714.294 209.601 701.07 209.962 697.882 210.201C687.065 210.928 675.662 212.663 664.899 214.161C660.319 219.484 653.863 227.228 650.071 232.952C658.158 233.369 663.188 233.257 671.12 231.164ZM453.033 282.456C444.758 263.839 437.454 248.499 433.268 228.386C431.559 220.178 430.893 211.126 429.23 203.463C422.686 207.581 411.112 216.857 405.622 222.604C404.469 229.489 403.351 236.965 401.959 243.757C411.316 258.209 419.047 265.908 433.639 274.587C440.811 278.243 445.335 280.098 453.033 282.456ZM368.94 676.089C376.809 677.922 380.171 674.914 382.278 667.575C379.275 658.023 365.309 637.916 357.789 631.66L357.263 631.626C351.136 633.455 349.35 633.69 342.816 632.837C347.646 645.495 357.279 669.245 368.94 676.089ZM570.794 231.769C573.512 231.94 575.758 232.043 578.496 232.047C576.434 232.899 576.336 232.952 574.14 233.048C557.807 235.733 528.202 231.314 511.367 230.885C524.485 248.145 533.699 267.025 545.564 284.25C547.317 282.077 549.013 279.853 550.692 277.621C561.221 263.617 573.539 251.041 584.077 237.049C582.334 234.938 580.971 232.629 578.496 232.047C578.068 230.478 572.343 224.243 570.851 222.461C542.028 219.072 520.68 215.118 496.258 197.824L494.2 196.238L493.784 196.531L494.454 198.664C497.118 203.574 502.183 214.463 504.097 219.772C516.041 221.982 527.971 223.731 539.945 225.926C549.499 227.678 561.381 230.87 570.794 231.769ZM347.225 567.295C346.183 551.744 345.973 539.062 345.88 523.508C338.494 515.748 337.715 514.06 332.531 505.657C329.325 500.459 318.231 475.88 315.886 473.815C318.053 489.775 337.464 556.339 347.225 567.295ZM431.673 508.303C433.593 501.377 438.11 487.108 439.348 480.779L438.682 480.451C429.84 485.208 421.535 487.415 411.999 490.24C415.564 493.934 418.872 497.029 422.63 500.49C425.847 503.493 428.215 505.608 431.673 508.303ZM427.629 476.844C428.868 476.473 431.142 476.032 431.825 475.227C419.102 467.576 407.638 460.253 396.941 449.766C389.917 448.206 382.394 446.661 375.472 444.859C380.71 453.475 397.285 473.081 404.282 480.572C412.112 479.646 419.9 478.403 427.629 476.844ZM449.738 105.127C451.013 103.788 452.463 102.375 453.516 100.875C462.864 82.9214 452.743 63.626 435.988 54.6936C429.735 51.3604 424.369 50.9076 417.461 50.1747C420.942 54.7132 425.398 59.3244 429.05 63.8801C440.452 78.1034 444.54 88.1715 449.738 105.127ZM464.614 46.0842C459.634 47.5937 458.713 48.836 455.791 53.2562C463.445 54.8156 469.761 56.2904 474.326 63.5043C479.036 70.9481 481.055 80.8305 479.124 89.4706C476.066 103.158 464.574 106.921 454.849 114.572C437.912 127.896 437.232 143.023 448.29 160.712C449.827 163.171 451.194 165.234 453.344 167.279L454.725 167.516C456.736 166.512 459.115 165.4 461.042 164.306C457.95 156.716 454.571 145.318 458.685 137.542C469.474 117.154 490.788 109.131 497.291 85.4263C502.547 66.2651 483.467 45.2665 464.614 46.0842ZM255.673 75.1517C262.069 74.9291 270.051 74.7733 276.394 74.1054C280.692 74.0641 285.163 73.9552 289.444 74.0618C280.887 71.2721 277.436 69.9173 268.447 70.581C263.09 71.8263 260.659 72.7726 255.673 75.1517ZM406.756 128.737C391.11 101.465 368.726 65.4173 336.679 56.6575C330.863 55.0799 324.868 54.2576 318.842 54.2108C311.591 54.9988 297.191 57.7092 292.073 63.2047L291.896 64.0057C295.15 65.3595 305.25 64.9292 309.441 65.1637C312.723 65.3689 315.988 65.7974 319.213 66.4462C352.615 73.1637 369.311 101.26 382.201 130.116C383.191 132.331 384.158 134.684 385.219 136.848L387.326 141.367C393.074 138.418 401.247 132.555 406.756 128.737ZM307.135 291.111C299.877 309.358 294.642 330.218 290.98 349.509C289.705 356.224 289.233 362.917 288.085 369.456C289.51 366.028 291.029 362.101 292.541 358.758L306.84 325.104C310.848 315.784 314.773 306.3 319.775 297.458C314.839 296.166 310.102 295.437 307.135 291.111L310.175 289.311C317.535 285.024 326.961 273.636 333.471 267.16C342.275 258.401 350.828 249.238 360.488 241.299C355.348 234.616 352.862 231.143 349.831 223.374C348.583 220.003 347.722 216.726 346.763 213.267C338.904 228.009 329.755 241.899 321.971 257.433C315.769 269.812 312.453 278.425 307.135 291.111ZM751.194 207.936L758.424 212.309C757.329 204.031 755.008 197.524 748.075 192.247C743.944 189.104 716.551 175.649 713.013 174.907C707.99 177.319 704.161 179.415 699.601 182.687C716.558 189.241 735.996 198.15 751.194 207.936ZM491.159 217.069C486.39 207.955 482.086 199.812 478.736 189.961C477.768 187.116 475.803 175.397 474.904 174.023C460.789 181.016 452.882 185.462 439.966 194.435C446.662 201.618 455.608 204.803 464.621 208.295C473.87 211.743 481.645 214.495 491.159 217.069ZM663.281 199.915C667.544 195.767 671.928 191.745 676.426 187.854C685.02 180.799 690.02 176.821 700.037 171.41C696.115 170.036 679.536 164.194 676.228 163.928C673.482 165.678 670.626 167.391 668.084 169.409C666.191 179.529 664.589 189.702 663.281 199.915ZM562.584 214.028L562.248 213.502C559.029 208.575 554.766 203.903 551.257 199.268C541.789 186.759 535.599 172.706 532.698 157.325C532.42 155.854 532.209 154.191 531.261 153.047L530.705 152.981C515.36 157.402 500.259 162.626 485.462 168.63L490.748 189.283C503.284 196.363 514.678 200.244 528.366 204.461C539.784 207.977 550.929 211.389 562.584 214.028ZM409.73 450.654C413.552 454.194 419.315 457.927 423.76 460.758C429.034 463.987 437.476 468.761 441.867 472.439C444.837 464.261 448.164 455.563 450.701 447.292L449.913 447.186C438.597 449.078 421.366 451.768 409.73 450.654ZM416.035 547.67C406.558 550.2 399.169 549.246 389.578 547.084C391.378 548.976 393.516 551.337 395.359 553.119C401.493 559.993 412.499 568.359 420.298 572.91C420.719 562.333 422.179 553.065 423.89 542.658C421.08 544.77 419.074 545.916 416.035 547.67ZM364.205 237.44L368.63 233.387C371.138 231.093 374.024 228.321 376.668 226.271C367.018 218.968 365.001 213.022 361.969 201.629C361.487 199.819 360.56 196.254 359.587 194.797L353.799 205.036C356.459 217.936 358.004 225.518 364.205 237.44ZM260.275 200.06C239.202 204.947 215.377 215.722 204.195 234.978C202.489 237.915 198.041 244.716 198.474 248.042C199.493 248.003 198.963 248.112 200.042 247.623C216.252 234.117 232.538 220.301 250.419 208.977C253.131 207.259 261.18 202.852 262.641 200.48L262.096 199.978L260.275 200.06ZM603.595 164.462C600.314 158.914 594.824 153.091 590.222 148.441C581.067 147.83 568.361 146.994 559.315 147.707C556.699 147.966 550.256 148.299 548.347 149.804C551.813 152.618 573.016 155.272 578.653 156.514C584.296 157.794 589.842 159.469 595.25 161.528L603.595 164.462ZM549.104 99.2493C543.581 106.116 538.265 115.297 530.802 119.982C517.205 128.519 500.547 131.353 486.107 138.221C475.795 143.126 473.462 146.724 473.419 158.025L478.629 155.78C487.238 152.079 495.523 148.803 504.461 146.097C519.34 141.593 536.135 138.756 547.144 126.78C552.356 121.11 559.521 112.217 556.215 104.075C554.801 100.591 552.698 99.4709 549.104 99.2493ZM429.015 517.915C421.332 511.604 408.347 500.065 402.664 491.983C395.717 493.138 382.749 493.019 375.688 491.845C389.309 507.103 406.707 527.378 424.634 537.677C424.817 536.84 425.474 534.097 425.551 533.384C426.547 528.642 427.668 522.461 429.015 517.915ZM884.694 575.663C893.177 572.114 896.697 570.089 904.337 564.986C912.86 559.293 918.519 552.057 928.281 549.337C928.749 546.449 929.295 544.163 929.014 541.249L928.369 540.388C923.742 543.339 886.094 572.119 884.303 575.245L884.694 575.663ZM151.198 489.27C150.297 482.356 149.93 478.069 147.656 471.451C148.285 478.065 149.151 486.215 150.648 492.691L151.159 493.416C151.761 491.87 151.404 491.083 151.198 489.27ZM506.011 565.513C507.202 563.059 509.493 558.771 509.976 556.281C507.347 555.092 505.297 553.252 503.058 551.44C505.87 552.401 508.26 553.17 510.948 554.455C512.566 553.476 514.281 549.464 516.686 547.212C515.181 546.476 514.167 546.227 513.467 544.748C514.911 544.188 515.169 544.648 517.057 545.205C519.478 542.98 520.003 542.51 521.875 539.68C521.655 538.76 521.551 538.646 521.678 537.712C525.492 535.002 528.715 530.44 529.845 525.848C530.115 524.749 529.255 524.688 528.975 523.751C528.744 522.165 530.611 520.675 529.96 519.601C526.929 514.596 523.4 511.398 520.183 506.134C514.399 519.644 499.36 544.375 486.579 551.477C474.732 582.929 459.886 621.31 500.961 637.522C498.62 632.251 496.812 626.704 494.919 621.249L494.502 620.279C493.887 615.693 493.863 608.639 493.68 603.809L490.726 601.515L490.814 601.025C492.07 601.47 492.099 601.731 493.103 601.547C494.46 597.339 495.647 589.743 496.497 585.175C494.61 583.836 494.384 583.667 492.884 581.938L492.745 581.066L492.493 580.917C494.079 581.516 495.22 582.12 496.902 582.056L497.44 581.326C497.095 578.944 495.741 577.406 494.368 575.359L499.33 578.434C501.063 574.927 502.824 571.435 504.614 567.956C502.113 566.043 501.085 565.225 498.86 562.94C501.338 563.673 503.604 564.587 506.011 565.513ZM385.202 295.304C388.688 299.945 392.689 304.134 396.74 308.284C392.597 292.86 390.408 276.977 390.223 261.008C390.211 256.854 391.773 238.746 391.171 236.458C383.817 242.46 371.53 257.641 365.596 265.601C371.388 274.986 378.422 286.68 385.202 295.304ZM709.918 230.876L710.511 231.325L711.001 231.11L709.918 230.876ZM599.665 235.354C598.456 246.504 597.176 257.647 595.824 268.78C594.898 276.756 593.466 289.36 593.744 297.431C597.585 293.502 614.053 264.628 616.906 257.888C617.723 255.959 619.017 238.088 619.482 233.982C620.203 227.623 621.436 218.211 621.974 211.553C621.952 211.356 621.93 211.16 621.908 210.963C617.697 215.469 602.442 231.322 599.665 235.354ZM719.328 205.884L717.136 205.434L716.769 205.898L718.418 206.975C722.393 208.297 725.876 209.778 730.065 209.367C729.028 208.471 721.168 206.415 719.328 205.884ZM449.957 596.997C453.025 598.371 455.518 599.469 458.681 600.592C459.183 591.84 459.466 585.563 461.259 576.936C449.632 561.658 447.358 550.163 444.711 531.181C444.241 527.812 444.365 521.113 443.194 518.322C437.206 526.783 430.017 568.295 428.372 579.99C434.559 586.828 441.639 592.879 449.957 596.997ZM477.599 133.459L483.675 129.577C495.751 122.773 509.846 120.683 519.05 109.198C525.617 100.856 528.619 89.3765 527.707 78.9008C526.951 70.2135 519.628 55.4678 509.383 56.6643C507.84 55.9704 507.744 56.0937 506.095 56.2006C506.198 56.785 506.064 56.4781 506.706 56.9973L509.383 56.6643C508.464 57.6272 506.861 58.7086 507.34 60.1592C516.845 88.9363 499.395 108.224 481.703 128.489L477.599 133.459ZM616.866 562.771L618.69 562.384C620.224 559.578 617.07 556.901 615.123 554.967C613.594 556.96 612.42 558.523 611.044 560.659C613.055 561.466 614.763 562.206 616.866 562.771ZM659.985 175.559C649.113 183.482 638.002 193.619 628.244 202.942C627.733 209.676 624.795 242.355 625.928 247.425C631.698 239.514 637.219 231.718 643.108 223.873C646.816 218.934 652.593 212.084 655.89 207.203C656.521 200.4 660.339 180.742 659.985 175.559ZM461.988 565.871L463.429 568.275L463.83 568.362C464.78 565.753 465.475 563.214 466.117 560.512C468.21 551.707 471.928 542.915 474.036 534.165C466.788 511.424 464.811 493.952 464.328 470.052C464.258 466.591 465.545 458.451 463.094 456.278C460.385 462.498 448.736 493.699 448.357 499.487C447.381 514.414 453.944 545.803 459.362 559.572C460.181 561.694 461.057 563.795 461.988 565.871ZM339.066 475.906C347.33 494.535 358.561 511.339 373.709 525.2C385.701 536.172 397.26 540.958 413.467 540.024C393.768 525.185 379.543 512.962 368.091 490.327C355.72 486.382 351.671 483.276 341.403 475.366L338.929 473.34L338.372 473.427C338.604 474.329 338.786 475.011 339.066 475.906ZM167.637 282.507C172.749 277.564 177.286 272.988 181.582 267.239C182.191 262.164 182.736 257.587 183.889 252.578C184.375 250.467 185.939 246.473 185.719 244.876C182.335 250.634 167.751 276.59 167.637 282.507ZM588.577 309.015C588.069 295.787 587.87 284.692 588.692 271.495C588.954 267.305 591.475 248.178 591.187 245.93C585.272 252.561 566.881 274.421 562.837 281.177C554.742 294.7 557.331 337.757 559.771 352.833L560.511 353.099C562.791 350.759 564.999 346.662 566.978 343.855C574.896 332.622 580.863 320.345 588.577 309.015ZM363.904 625.832C365.373 627.949 368.645 633.43 370.993 633.913L372.249 633.273C379.359 623.972 376.962 610.183 375.447 598.934C373.726 586.903 371.52 574.947 368.835 563.095C367.707 558.057 364.927 547.468 364.322 542.825C360.252 538.47 356.693 534.986 352.007 531.258C351.865 553.022 356.383 581.887 365.027 602.245C369.011 611.627 368.608 616.868 363.904 625.832ZM608.907 544.41C611.288 548.658 615.848 549.151 619.394 552.213C634.083 564.901 632.519 602.292 615.943 612.727C611.932 615.25 607.064 616.019 602.471 614.855C582.76 609.957 574.332 579.198 579.341 561.985C580.866 556.744 583.469 551.741 584.711 546.475C580.456 550.966 578.647 554.169 576.306 559.99C570.423 581.312 570.442 617.481 597.549 625.262C615.78 630.496 630.12 611.706 632.789 595.875C635.448 582.359 633.909 567.724 626.73 555.797C623.444 550.324 615.5 544.158 608.907 544.41ZM603.331 149.677C616.168 164.989 619.577 175.402 623.796 194.744C630.6 188.48 637.629 181.881 644.813 176.098C650.016 171.909 659.433 164.757 663.92 160.349C643.925 155.731 623.701 152.168 603.331 149.677ZM625.411 588.257C621.333 580.937 615.875 572.748 609.04 567.734C602.309 562.796 594.506 561.382 588.248 555.316C582.74 568.529 581.383 578.802 586.748 592.492C591.267 604.021 604.84 618.458 617.026 606.958C621.918 600.93 623.629 595.796 625.411 588.257ZM192.626 613.6C181.095 608.083 173.445 601.458 163.904 593.141C161.338 590.904 155.528 585.628 152.929 583.991C159.682 617.878 179.935 647.118 208.154 667.555C212.939 671.021 219.777 674.221 225.71 672.337C226.138 660.657 210.076 650.106 204.028 640.422C198.334 631.305 194.75 624.176 192.626 613.6ZM472.569 297.309C477.176 308.288 484.835 319.199 492.279 328.501C495.606 332.658 501.094 338.385 503.97 342.474C507.9 337.028 511.645 330.795 515.395 325.695C519.814 319.586 528.771 308.346 532.358 302.548C515.797 304.451 488.402 301.647 472.569 297.309ZM363.239 374.675C360.798 368.471 357.801 362.898 355.269 356.848C350.05 344.326 347.497 330.854 347.773 317.291C347.835 314.198 348.765 292.28 348.346 290.393C337.793 303.298 328.617 322.956 322.418 338.507C328.541 348.506 339.185 358.607 348.509 365.617C353.596 369.377 357.58 371.814 363.239 374.675ZM557.346 360.712C553.316 349.366 551.961 336.966 551.239 324.992C550.677 315.687 551.599 306.512 551.872 297.241C551.661 296.94 551.449 296.638 551.238 296.337C543.73 306.494 526.486 328.328 524.093 339.431C521.196 352.872 527.518 384.735 531.944 398.24L532.728 398.243C536.117 393.688 539.63 387.96 542.812 383.172C547.599 375.971 552.987 368.187 557.346 360.712ZM590.246 325.344C587.656 329.636 580.289 340.108 580.933 344.532C584.078 348.814 592.527 345.537 596.823 344.039C622.238 335.069 637.245 322.38 661.027 310.967C670.632 306.358 678.36 304.682 688.286 301.647C689.026 299.102 689.694 296.951 690.58 294.439C688.42 293.93 684.911 293.355 683.248 292.129C683.62 291.242 683.94 290.362 684.201 289.436C682.532 287.537 677.205 287.895 674.7 288.12C663.242 291.307 650.308 299.446 639.484 304.871C623.34 312.961 607.62 320.334 590.246 325.344ZM281.023 628.454L281.38 628.576C282.488 620.378 253.052 543.123 249.752 529.206C247.544 519.891 244.432 506.564 242.315 496.699C241.851 494.538 239.872 485.291 239.068 483.783C238.862 499.864 238.51 515.943 238.012 532.018C237.928 535.622 237.416 553.022 237.882 554.968C243.58 578.751 265.65 610.782 281.023 628.454ZM317.415 417.772C323.949 451.104 358.993 480.415 392.971 481.206C381.119 466.16 373.626 455.754 362.527 440.054C349.047 436.942 339.235 434.148 327.649 425.871C324.625 423.711 319.985 419.465 317.415 417.772ZM517.273 346.829C503.438 367.864 501.618 369.34 499.765 394.146C498.736 406.762 498.136 419.41 497.965 432.068C497.892 442.746 498.365 456.969 497.73 467.297C498.931 463.932 500.135 460.392 501.482 457.1C508.769 439.919 517.868 421.471 528.365 406.007C522.095 393.85 519.535 375.956 518.146 362.19C517.666 357.432 518.263 351.486 517.273 346.829ZM381.278 433.869C373.261 415.308 369.042 406.883 365.226 386.484C345.565 376.516 332.608 364.245 320.61 345.876C314.441 360.901 309.58 376.213 316.199 391.963C322.196 406.238 336.212 418.946 350.899 423.823C342.7 410.141 331.563 392.022 329.564 376.305C335.147 382.005 340.683 389.497 345.069 396.25C351.785 406.486 360.266 420.191 367.492 429.868C371.849 431.199 376.892 432.877 381.278 433.869ZM493.187 386.844C488.121 396.656 470.872 430.076 470.276 439.093C469.026 458.006 472.052 500.388 476.845 518.34L477.71 522.367C481.581 514.065 489.749 492.033 490.799 483.508C492.949 466.063 489.39 444.066 490.09 425.793C490.37 418.508 494.236 391.317 493.187 386.844ZM361.324 36.5378C352.752 39.449 351.553 41.0038 348.558 49.5467C353.683 51.0608 356.154 52.1672 360.868 54.7809C364.662 54.1485 366.904 53.8727 370.759 54.6911C407.352 62.4601 411.611 94.8933 413.432 125.638L419.465 122.454C424.12 119.807 429.048 116.931 434.03 114.991C429.434 96.0697 424.33 74.0847 411.206 59.2225C400.442 47.0342 377.734 35.6908 361.324 36.5378Z"/><path fill="#151415" d="M572.958 521.584C565.452 518.22 558.607 517.485 550.836 512.053C537.313 502.557 527.969 492.441 524.987 475.99C518.156 438.31 547.856 425.36 576.892 444.812C584.265 449.752 581.116 454.253 582.272 462.006C583.839 472.511 599.766 469.954 600.16 479.34C600.001 483.646 599.95 485.838 600.473 490.21C601.632 499.897 615.864 505.58 617.926 513.333C618.027 513.709 618.093 514.093 618.124 514.48C618.271 516.277 617.338 519.161 615.989 520.296C609.33 525.901 598.588 515.673 592.701 513.304C585.105 510.246 576.829 509.128 571.04 503.309C563.92 496.153 571.681 485.907 573.37 478.082C574.464 473.368 574.54 473.483 574.698 468.242C565.421 477.601 547.676 481.294 549.628 497L548.277 497.211C542.481 481.693 552.503 471.895 564.435 463.874C567.626 461.729 571.631 459.562 574.497 457.143C569.571 455.226 545.576 445.669 543.726 449.617C535.637 466.874 527.549 489.374 544.788 504.183C555.831 513.669 562.485 516.465 572.964 520.427L572.958 521.584Z"/><path fill="#151415" d="M823.967 365.662C834.601 373.945 840.282 381.479 842.08 395.153C844.403 412.813 839.476 428.031 864.086 425.269L865.251 425.55C859.768 433.534 858.397 432.804 848.778 432.355L853.477 438.981C849.611 436.825 845.846 434.562 841.683 433.062C843.745 436.466 848.739 442.319 851.394 445.626C850.578 446.188 850.691 446.199 849.763 446.478C847.381 447.196 850.181 446.91 848.482 448.836C844.23 447.335 841.043 448.904 835.194 447.315C823.96 444.265 801.632 433.35 792.595 426.025C805.407 431.568 817.246 435.127 830.589 439.319C823.601 434.657 814.047 430.33 806.281 426.743C796.523 422.237 787.717 418.012 778.295 412.839C792.418 409.505 806.442 415.815 820.475 417.498C826.1 418.172 832.804 418.11 838.773 418.637C838.345 412.357 837.655 396.194 834.747 391.65C828.451 381.81 796.531 404.063 791.055 407.566L790.825 406.254C801.32 398.869 821.31 386.199 833.898 385.835C831.126 377.435 828.393 373.231 823.967 365.662Z"/><path fill="#151415" d="M832.339 330.222C840.071 329.882 846.983 330.265 852.471 336.561C857.842 342.722 860.266 359.578 852.567 364.718C851.194 365.634 839.433 357.295 837.387 356.786C819.849 346.914 801.698 352.572 783.89 358.337C773.55 362.331 765.282 367.598 755.373 372.299C768.443 357.804 787.858 341.454 806.489 334.971C814.466 332.194 823.958 330.88 832.339 330.222Z"/><path fill="#E0E1E2" fill-opacity="0.023529412" d="M704 518.868L705.236 517.73L706.797 517.956C707.76 520.348 706.552 521.551 704.395 522.445C703.172 522.323 702.547 521.895 701.605 521.06C699.058 518.804 697.05 519.31 693.848 517.337C691.28 511.707 688.156 515.34 685.031 512.624C682.366 510.31 677.213 507.838 676.302 504.893C675.641 501.994 670.582 504.954 669.038 503.435C661.613 496.129 661.193 489.791 650.555 486.429C647.676 485.52 639.222 463.219 636.747 460.805C636.758 460.815 634.355 442.726 634.39 441.158C634.368 439.887 634.956 439.243 635.747 438.649C636.914 438.831 636.407 438.624 637.296 439.199L636.458 439.953C634.981 453.964 643.281 472.72 651.451 483.736C653.723 486.8 657.17 486.459 658.454 487.894C664.01 494.098 668.4 498.899 675.051 504.038C663.942 490.539 653.212 472.569 647.671 456.016L649.616 455.917C650.264 456.794 650.29 456.661 650.653 457.646L651.226 457.496C658.027 478.139 666.853 494.651 683.945 508.874C685.871 510.724 686.683 511.256 688.937 512.728L684.58 507.305C674.719 495.416 664.06 478.779 657.657 464.737C658.723 464.222 658.771 464.395 659.975 464.388C661.014 463.418 660.598 464.015 660.782 462.218C664.173 478.096 682.077 506.09 695.345 514.667C696.48 515.395 697.628 516.1 698.79 516.783C700.314 517.764 702.432 519.372 704.124 519.652L704 518.868Z"/><path d="M652.403 479.169C644.196 462.062 638.503 443.977 644.076 425.122C643.613 436.762 644.486 444.951 647.671 456.016C653.212 472.569 663.942 490.539 675.051 504.038C668.4 498.899 664.01 494.098 658.454 487.894C657.17 486.459 653.723 486.8 651.451 483.736C643.281 472.72 634.981 453.964 636.458 439.953C638.425 451.692 644.137 470.524 652.403 479.169Z"/><path d="M660.782 462.218C660.132 459.006 659.165 454.818 658.848 451.653C660.848 456.589 662.632 461.14 665.065 465.899C669.554 475.196 684.067 502.73 692.27 508.045L692.919 508.07C692.723 506.765 685.518 497.308 684.063 495.326C681.467 491.791 671.496 473.592 672.462 470.071C673.574 471.33 673.69 471.469 674.594 473.001C683.758 488.314 689.651 498.229 700.253 512.401C699.325 513.365 699.522 513.105 698.273 513.77C698.168 515.248 698.016 514.553 699.028 515.823L698.79 516.783C697.628 516.1 696.48 515.395 695.345 514.667C682.077 506.09 664.173 478.096 660.782 462.218Z"/><path d="M651.226 457.496C649.37 448.567 647.545 429.967 648.718 421.114L649.219 420.443C651.555 423.995 651.39 431.684 651.329 436.051C651.194 445.625 653.127 456.165 657.657 464.737C664.06 478.779 674.719 495.416 684.58 507.305L683.945 508.874C666.853 494.651 658.027 478.139 651.226 457.496Z"/><path d="M685.054 480.19C687.644 481.392 690.938 488.285 692.58 490.889C699.11 501.248 707.033 512.088 715.329 521.081C715.005 520.993 714.639 520.91 714.361 520.735C700.92 512.24 689.171 495.053 685.054 480.19Z"/><path fill="#B7B7BA" fill-opacity="0.015686275" d="M665.065 465.899L665.805 465.234C668.168 465.739 667.827 466.148 667.792 468.565L668.395 468.956C670.143 468.455 671.939 467.705 673.633 468.136C674.973 469.439 675.069 470.028 675.666 471.844L674.594 473.001C673.69 471.469 673.574 471.33 672.462 470.071C671.496 473.592 681.467 491.791 684.063 495.326C685.518 497.308 692.723 506.765 692.919 508.07L692.27 508.045C684.067 502.73 669.554 475.196 665.065 465.899Z"/><path d="M699.793 493.271C702.421 494.685 719.257 515.712 722.501 519.64C712.296 514.411 704.094 503.733 699.793 493.271Z"/><path d="M577.188 523.305C579.531 524.362 583.622 528.241 586.546 529.418C590.777 531.119 596.024 531.935 600.02 533.838C587.234 533.848 585 533.619 577.188 523.305Z"/><path fill="#2D2B2E" fill-opacity="0.90980393" d="M790.825 406.254L791.055 407.566C789.584 408.609 787.521 410.11 785.797 410.217C786.857 408.588 789.132 407.365 790.825 406.254Z"/><path fill="#2D2B2E" fill-opacity="0.87450981" d="M699.028 515.823C700.973 516.905 702.19 517.594 704 518.868L704.124 519.652C702.432 519.372 700.314 517.764 698.79 516.783L699.028 515.823Z"/><path fill="#2D2B2E" fill-opacity="0.97254902" d="M548.277 497.211L549.628 497C550.482 499.574 551.101 501.262 551.526 503.978L548.277 497.211Z"/><path d="M684.58 507.305L688.937 512.728C686.683 511.256 685.871 510.724 683.945 508.874L684.58 507.305Z"/><path fill="#2D2B2E" fill-opacity="0.86274511" d="M572.964 520.427C574.375 521.194 575.612 521.542 576.336 522.701C574.598 522.342 574.499 522.273 572.958 521.584L572.964 520.427Z"/><path fill="#E0E1E2" fill-opacity="0.28627452" d="M864.086 425.269L864.866 424.658C864.995 424.955 865.123 425.253 865.251 425.55L864.086 425.269Z"/><path fill="#4F4E50" fill-opacity="0.0078431377" d="M260.275 200.06L262.096 199.978L262.641 200.48C261.18 202.852 253.131 207.259 250.419 208.977C232.538 220.301 216.252 234.117 200.042 247.623C198.963 248.112 199.493 248.003 198.474 248.042C198.041 244.716 202.489 237.915 204.195 234.978C215.377 215.722 239.202 204.947 260.275 200.06Z"/><path d="M895.052 515.989C893.32 516.827 891.903 517.557 889.977 517.804C885.196 518.432 880.361 517.122 876.551 514.164C872.198 510.858 869.348 505.948 868.638 500.528C867.964 494.843 869.642 489.13 873.284 484.713C876.55 480.798 882.306 477.908 887.35 477.489C889.234 477.579 891.589 477.603 893.403 477.907C886.197 479.332 879.361 480.414 874.917 487.217C872.731 490.595 871.994 494.709 872.87 498.636C874.541 506.379 880.337 510.837 887.612 512.898C885.226 507.009 875.773 500.184 878.619 494.128C880.293 495.136 881.584 499.655 882.714 501.539C884.762 504.955 888.297 508.499 891.087 511.38C892.689 512.557 893.641 514.39 895.052 515.989Z"/><path fill="#151415" d="M891.087 511.38C895.16 503.404 890.866 503.464 900.224 496.903C906.355 492.604 922.57 488.75 916.865 501.662C912.702 505.273 909.068 506.379 903.804 507.935C900.283 508.914 896.585 509.258 894.871 512.273C894.685 513.912 894.818 514.399 895.052 515.989C893.641 514.39 892.689 512.557 891.087 511.38Z"/><path fill="#B7B7BA" fill-opacity="0.0078431377" d="M185.719 244.876C185.939 246.473 184.375 250.467 183.889 252.578C182.736 257.587 182.191 262.164 181.582 267.239C177.286 272.988 172.749 277.564 167.637 282.507C167.751 276.59 182.335 250.634 185.719 244.876Z"/><path fill="#E0E1E2" fill-opacity="0.011764706" d="M704.6 320.937C705.84 321.064 705.752 321.112 706.704 321.95C707.551 320.952 707.362 321.32 707.745 320.16C709.576 320.873 708.797 322.521 710.951 322.94C712.9 323.319 716.962 322.601 718.523 323.766C717.699 325.334 716.194 327.313 716.243 328.666L717.931 329.569C717.889 331.448 715.349 335.114 714.217 337.067C711.721 338.567 706.296 340.119 703.385 340.671C702.569 340.23 702.896 340.525 702.381 339.812C705.51 338.463 710.653 336.654 712.716 334.198C715.014 331.462 714.239 331.917 717.355 329.712L718.008 329.254C712.535 330.62 706.543 331.443 700.925 332.494C702.682 331.629 704.327 330.807 706.05 329.876C709.674 328.571 712.998 327.703 715.883 325.178L715.641 324.607C712.081 324.262 709.175 325.464 705.722 326.501L703.62 325.764C705.317 325.265 706.683 324.984 707.677 323.62C705.707 322.436 698.517 324.235 695.917 324.663C698.366 322.823 701.699 321.822 704.6 320.937Z"/><path fill="#B7B7BA" fill-opacity="0.019607844" d="M351.985 108.07C365.808 117.541 376.431 126.524 385.255 141.207L384.882 140.856C381.853 137.957 379.323 134.478 376.28 131.391C367.568 122.552 358.301 116.004 347.327 110.333C350.317 109.234 349.932 110.16 351.985 108.07Z"/><path fill="#E0E1E2" fill-opacity="0.015686275" d="M697.868 284.068C694.805 284.307 690.367 285.277 688.076 283.038L688.6 282.044C690.835 280.579 694.704 279.61 697.351 279.486L697.938 280.358L695.731 280.935C695.195 282.171 695.195 281.54 695.586 282.857C697.005 283.098 697.078 283.258 698.385 282.771L698.244 282.051C702.596 281.709 711.32 280.217 714.88 281.407L715.607 282.294C715.06 284.036 715.521 283.26 713.939 284.541L712.687 284.72C711.742 283.793 712.059 284.35 711.975 282.883L712.976 282.385C711.751 282.089 710.453 282.52 709.098 282.766C705.364 283.279 701.62 283.713 697.868 284.068Z"/><path fill="#4F4E50" fill-opacity="0.011764706" d="M916.865 501.662C917.091 502.546 917.158 503.396 917.191 504.307L918.415 505.482C915.987 507.027 910.247 509.315 909.552 510.55L909.544 511.871C908.06 511.503 907.017 509.529 904.753 508.1L903.804 507.935C909.068 506.379 912.702 505.273 916.865 501.662Z"/><path fill="#E0E1E2" fill-opacity="0.011764706" d="M731.419 218.359C733.82 217.7 733.117 217.507 735.002 218.294C736.143 219.636 736.24 219.584 736.57 221.381L736.312 222.336C734.911 222.72 724.871 219.572 723.002 219.96C724.392 222.094 726.499 221.314 726.691 223.064C725.432 223.648 725.95 223.472 724.433 223.417C722.732 222.472 719.422 220.021 717.691 218.805C720.241 218.736 723.831 218.566 726.28 218.9C728.358 219.183 730.75 220.165 732.912 220.346L731.419 218.359Z"/><path fill="#7C7D7D" fill-opacity="0.015686275" d="M712.048 289.348C712.678 289.563 712.328 289.516 713.11 289.449C714.331 290.165 714.848 290.46 716.179 291.042C715.955 291.901 716.038 292.214 715.563 292.699C711.076 293.341 704.526 294.499 700.159 294.471L699.25 294.47C699.068 294.465 698.886 294.461 698.704 294.456L697.84 294.503L697.781 294.1L700.447 292.876C703.995 291.894 708.754 290.721 712.048 289.348Z"/><path fill="#E0E1E2" fill-opacity="0.023529412" d="M389.578 547.084C399.169 549.246 406.558 550.2 416.035 547.67C414.097 553.636 397.038 548.598 395.306 550.326L396.2 551.842L395.359 553.119C393.516 551.337 391.378 548.976 389.578 547.084Z"/><path d="M694.483 306.036C700.469 305.263 703.611 304.643 709.489 305.649L709.144 306.966L695.873 309.842L695.304 309.504C694.976 308.33 694.742 307.223 694.483 306.036Z"/><path d="M682.582 257.601C688.995 254.432 685.095 251.065 685.46 249.047C692.398 249.012 698.442 251.123 705.578 250.521C699.932 252.342 694.374 254.427 688.922 256.769L687.882 256.657C689.242 255.151 697.211 252.395 699.367 251.768C698.273 251.348 688.191 249.632 686.778 249.751C686.892 252.539 687.701 258.156 682.973 258.288L682.582 257.601Z"/><path fill="#7C7D7D" fill-opacity="0.039215688" d="M683.642 274.05L684.735 274.704C683.27 276.738 681.521 275.84 680.111 278.058C680.348 279.426 680.073 278.793 681.292 279.829C677.506 280.789 673.656 281.684 669.854 282.6C672.932 280.415 674.646 278.82 678.436 278.449C678.818 277.894 678.935 277.579 679.228 276.974C678.166 276.204 677.479 276.674 675.7 276.916C674.449 277.126 671.608 277.772 670.681 276.993C675.14 275.774 678.57 275.669 682.972 274.27L683.642 274.05Z"/><path d="M715.563 292.699L716.978 293.332C715.334 295.23 704.818 296.369 700.646 297.879L698.704 294.456C698.886 294.461 699.068 294.465 699.25 294.47L700.159 294.471C704.526 294.499 711.076 293.341 715.563 292.699Z"/><path d="M705.722 326.501C709.175 325.464 712.081 324.262 715.641 324.607L715.883 325.178C712.998 327.703 709.674 328.571 706.05 329.876C704.619 328.25 704.954 329.142 704.672 327.262L705.722 326.501Z"/><path fill="#2D2B2E" fill-opacity="0.98823529" d="M695.917 324.663C698.517 324.235 705.707 322.436 707.677 323.62C706.683 324.984 705.317 325.265 703.62 325.764C700.676 326.441 696.956 326.709 693.981 326.041L694.158 325.765L693.822 325.338C694.964 324.818 694.696 324.927 695.917 324.663Z"/><path d="M699.353 289.536C702.983 288.991 709.182 287.432 712.048 289.348C708.754 290.721 703.995 291.894 700.447 292.876L699.353 289.536Z"/><path d="M697.868 284.068C701.62 283.713 705.364 283.279 709.098 282.766L708.733 284.691C705.484 286.568 702.271 285.956 698.442 287.086L697.868 284.068Z"/><path fill="#E0E1E2" fill-opacity="0.015686275" d="M147.656 471.451C149.93 478.069 150.297 482.356 151.198 489.27L150.648 492.691C149.151 486.215 148.285 478.065 147.656 471.451Z"/><path d="M715.384 233.245L715.023 232.855C717.156 231.519 716.826 232.177 717.444 230.257C721.154 231.73 722.303 232.224 725.671 234.415L715.384 233.245Z"/><path d="M494.919 621.249C492.982 620.891 483.019 615.904 482.55 614.488C484.49 614.392 492.878 618.921 494.502 620.279L494.919 621.249Z"/><path fill="#B7B7BA" fill-opacity="0.015686275" d="M719.328 205.884C721.168 206.415 729.028 208.471 730.065 209.367C725.876 209.778 722.393 208.297 718.418 206.975L719.328 205.884Z"/><path d="M601.11 443.707C603.071 442.962 603.123 442.891 604.872 441.681C605.596 443.164 606.318 444.107 605.993 445.662C604.125 446.458 602.614 444.849 601.11 443.707Z"/><path fill="#2D2B2E" d="M503.058 551.44C505.87 552.401 508.26 553.17 510.948 554.455C510.412 555.303 510.288 555.35 509.976 556.281C507.347 555.092 505.297 553.252 503.058 551.44Z"/><path d="M570.794 231.769C573.512 231.94 575.758 232.043 578.496 232.047C576.434 232.899 576.336 232.952 574.14 233.048C572.209 233.01 570.6 232.918 568.675 232.756L568.69 232.339L570.794 231.769Z"/><path d="M682.698 271.963C684.83 271.855 688.625 271.423 690.447 272.149C689.161 272.899 687.143 273.087 685.601 273.342C684.611 272.72 683.771 272.423 682.698 271.963Z"/><path fill="#E0E1E2" fill-opacity="0.015686275" d="M689.815 338.761C691.305 338.47 694.534 337.65 695.815 338.207C694.485 339.268 693.174 339.624 691.579 340.226L689.815 338.761Z"/><path fill="#E0E1E2" fill-opacity="0.011764706" d="M477.599 133.459L481.703 128.489L483.675 129.577L477.599 133.459Z"/><path fill="#2D2B2E" d="M543.269 415.578C541.577 415.593 541.119 415.678 539.469 415.147L539.576 414.416L542.052 412.669L543.269 415.578Z"/><path d="M699.458 342.278C701.071 342.748 701.879 342.621 702.514 343.685C700.821 344.427 700.407 344.461 698.648 344.779C698.717 343.382 698.721 343.481 699.458 342.278Z"/><path d="M611.56 434.438C612.984 434.666 613.779 434.665 614.982 435.473C613.383 436.297 611.443 436.108 609.589 436.122L609.473 435.456L611.569 435.343L611.56 434.438Z"/><path d="M709.098 282.766C710.453 282.52 711.751 282.089 712.976 282.385L711.975 282.883C710.767 283.633 710.051 284.089 708.733 284.691L709.098 282.766Z"/><path d="M516.686 547.212C515.181 546.476 514.167 546.227 513.467 544.748C514.911 544.188 515.169 544.648 517.057 545.205L516.686 547.212Z"/><path fill="#B7B7BA" fill-opacity="0.078431375" d="M695.043 240.754C695.848 240.858 698.987 241.202 699.619 241.357L699.866 242.737L694.382 241.555L695.043 240.754Z"/><path d="M154.451 218.18C155.649 217.289 156.83 216.119 158.217 216.055C157.647 217.517 157.562 217.467 156.474 218.643L154.451 218.18Z"/><path fill="#E0E1E2" fill-opacity="0.011764706" d="M339.066 475.906C338.786 475.011 338.604 474.329 338.372 473.427L338.929 473.34L341.403 475.366C339.935 476.021 340.499 476.015 339.066 475.906Z"/><path d="M887.35 477.489C890.145 476.941 890.74 476.975 893.603 477.153L894.201 477.575L893.403 477.907C891.589 477.603 889.234 477.579 887.35 477.489Z"/><path d="M675.7 276.916C677.479 276.674 678.166 276.204 679.228 276.974C678.935 277.579 678.818 277.894 678.436 278.449L675.7 276.916Z"/><path fill="#E0E1E2" fill-opacity="0.023529412" d="M494.454 198.664L493.784 196.531L494.2 196.238L496.258 197.824L494.454 198.664Z"/><path fill="#7C7D7D" fill-opacity="0.42745098" d="M506.095 56.2006C507.744 56.0937 507.84 55.9704 509.383 56.6643L506.706 56.9973C506.064 56.4781 506.198 56.785 506.095 56.2006Z"/><path fill="#B7B7BA" fill-opacity="0.29019609" d="M151.198 489.27C151.404 491.083 151.761 491.87 151.159 493.416L150.648 492.691L151.198 489.27Z"/><path fill="#7C7D7D" fill-opacity="0.30588236" d="M718.418 206.975L716.769 205.898L717.136 205.434L719.328 205.884L718.418 206.975Z"/><path fill="#4F4E50" fill-opacity="0.3019608" d="M694.382 241.555C693.916 241.363 693.211 240.985 692.742 240.751C693.966 240.218 693.368 240.429 695.043 240.754L694.382 241.555Z"/><path d="M709.489 305.649L710.408 306.335L710.268 307.011L709.144 306.966L709.489 305.649Z"/><path fill="#151415" d="M528.7 802.003C510.267 786.844 478.167 772.752 456.409 763.154C452.471 761.417 437.16 756.975 435.683 755.495L436.525 756.067L435.947 755.41L436.842 755.645C442.74 757.17 448.988 757.352 454.514 758.792C489.11 767.81 520.313 785.874 549.699 805.783C625.306 857.01 699.284 926.593 746.365 1005.38C750.018 1011.44 753.416 1017.65 756.548 1024L745.834 1024C743.491 1021.11 739.845 1015.27 737.567 1011.88L722.877 990.366C715.688 979.941 704.659 966.13 696.537 956.179C677.479 933.027 656.65 911.391 634.237 891.469C578.408 841.048 518.436 801.707 446.176 779.462C437.783 776.878 429.082 774.776 420.78 772.033C466.199 775.755 487.397 784.681 528.062 803.713C530.744 804.835 533.422 806.139 536.058 807.376C533.624 805.494 531.206 803.783 528.7 802.003Z"/><path fill="#151415" d="M584.221 914.35C624.998 928.385 658.849 974.32 681.131 1009.17C683.815 1013.37 686.419 1019.28 683.918 1024L678.048 1024C671.009 1014.26 665.175 1003.97 658.3 994.24C638.981 966.891 615.984 942.414 590.629 920.599C588.486 918.759 586.165 916.433 584.221 914.35Z"/><path fill="#E0E1E2" fill-opacity="0.023529412" d="M342.339 649.633C346.1 659.582 350.942 669.282 358.53 676.902L356.985 678.596C351.145 668.848 344.265 659.237 337.818 649.835C340.87 648.737 338.079 650.031 341.565 650.722L342.339 649.633Z"/><path fill="#B7B7BA" fill-opacity="0.011764706" d="M541.732 89.8917L542.958 89.6307C544.11 92.7916 541.533 95.8824 544.12 97.2948L544.936 96.4352C545.487 96.8246 546.007 97.1671 546.523 97.5998C545.346 98.4473 543.593 100.626 542.089 101.946L541.649 101.513C542.263 97.5154 541.935 93.9124 541.732 89.8917Z"/><path fill="#E0E1E2" fill-opacity="0.031372551" d="M528.7 802.003C531.206 803.783 533.624 805.494 536.058 807.376C533.422 806.139 530.744 804.835 528.062 803.713L528.7 802.003Z"/></svg>